<?xml version="1.0" standalone="no"?>
<!DOCTYPE svg PUBLIC "-//W3C//DTD SVG 1.1//EN" "http://www.w3.org/Graphics/SVG/1.1/DTD/svg11.dtd" >
<svg>
<metadata>
Created by FontForge 20090914 at Tue Oct 18 12:46:17 2016
 By www-data
Copyright &#194;&#169; 2015 Apple Inc. All rights reserved.
</metadata>
<defs>
<font id="PingFangSC-Regular" horiz-adv-x="600" >
  <font-face 
    font-family="PingFang SC Regular"
    font-weight="400"
    font-stretch="normal"
    units-per-em="1000"
    panose-1="2 11 3 0 0 0 0 0 0 0"
    ascent="860"
    descent="-140"
    x-height="517"
    cap-height="714"
    bbox="-15 -211.999 1000 901"
    underline-thickness="48"
    underline-position="-76"
    unicode-range="U+001D-U+FE16"
  />
<missing-glyph horiz-adv-x="1000" 
 />
    <glyph glyph-name=".notdef" horiz-adv-x="1000" 
 />
    <glyph glyph-name="glyph1" horiz-adv-x="0" 
 />
    <glyph glyph-name="glyph1" horiz-adv-x="0" 
 />
    <glyph glyph-name="space" unicode=" " horiz-adv-x="333" 
 />
    <glyph glyph-name="exclam" unicode="!" horiz-adv-x="333" 
d="M133 714h68l-10 -529h-48zM203 86c10 -8.66699 15 -20.667 15 -36c0 -14 -5 -26 -15 -36c-10.667 -9.33301 -22.667 -14 -36 -14c-14.667 0 -26.667 5 -36 15c-10 10 -15 21.667 -15 35c0 15.333 5 27.333 15 36c8.66699 9.33301 20.667 14 36 14
c14.667 0 26.667 -4.66699 36 -14z" />
    <glyph glyph-name="quotedbl" unicode="&#x22;" horiz-adv-x="413" 
d="M353 646c0 -79.333 -33.333 -137.335 -100 -174.002l-22 35c47.333 31.333 73 72.333 77 123c-5.33301 -1.33301 -10.333 -2 -15 -2c-15.333 0 -27.666 4.66699 -36.999 14c-9.33301 8.66699 -14 20.334 -14 35.001c0 16.667 4.33301 29.334 13 38.001
c9.33301 8.66699 21.666 13 36.999 13c40.667 0 61 -27.333 61 -82zM182 645.998c0 -79.333 -33.332 -137.334 -99.999 -174.001l-22 35c47.333 32 72.666 73 75.999 123c-5.33301 -1.33301 -10 -2 -14 -2c-15.333 0 -27.666 4.66699 -36.999 14c-10 9.33301 -15 21 -15 35
c0 16.667 4.66699 29.334 14 38.001s21.666 13 36.999 13c40.667 0 61 -27.333 61 -82z" />
    <glyph glyph-name="numbersign" unicode="#" 
d="M73 538h122l28 176h51l-28 -176h166l28 176h51l-27 -176h108l-8 -48h-108l-43 -268h122l-8 -47h-121l-28 -175h-52l28 175h-165l-28 -175h-52l28 175h-109l8 47h108l43 268h-122zM196 222h165l43 268h-165z" />
    <glyph glyph-name="dollar" unicode="$" 
d="M278 809h40.998v-82c56.667 -2.66699 103.667 -20.334 141 -53.001c39.333 -33.333 64 -84.666 74 -153.999h-60c-8 51.333 -27.333 90.333 -58 117c-25.333 21.333 -57.666 33.666 -96.999 36.999v-287l119 -43c72 -36 108 -87.333 108 -154
c0 -70 -23.667 -122.667 -71 -158c-37.333 -27.333 -89.333 -42.666 -156 -45.999v-87h-41v88c-66 4 -117 25.333 -153 64c-38 40 -61 99 -69 177h61c6.66699 -63.333 24.334 -110.333 53.001 -141c24.667 -26.667 60.667 -42 108 -46v302l-102 36
c-71.333 36 -107 87.667 -107 155c0 64 22.333 113 67 147c36.667 29.333 84 45 142 47v81zM318.998 328v-288c51.333 3.33301 91.333 16.333 120 39c30 26 45 62.333 45 109c0 52 -35.667 92 -107 120zM277.998 402v272c-42.667 -2 -76 -12.667 -100 -32
c-32 -24 -48 -60 -48 -108c0 -48.667 36 -87.667 108 -117z" />
    <glyph glyph-name="percent" unicode="%" horiz-adv-x="955" 
d="M848 333c24.667 -34.667 36.999 -80.333 36.999 -137c0 -55.333 -12.333 -101 -37 -137c-28 -39.333 -67.667 -59 -119 -59c-52 0 -91.667 19.667 -119 59c-24.667 33.333 -37 79 -37 137s12.333 103.667 37 137c26.667 38.667 66.334 58 119.001 58
c51.333 0 91 -19.333 119 -58zM650.999 728.001h51l-399 -742h-51zM343.999 656.001c24.667 -34.667 36.999 -80.333 36.999 -137c0 -55.333 -12.333 -101 -37 -137c-28 -39.333 -67.667 -59 -119 -59s-90.666 19.667 -117.999 59c-24.667 33.333 -37 79 -37 137
s12.333 103.667 37 137c26.667 38.667 66 58 118 58c51.333 0 91 -19.333 119 -58zM653.998 304.002c-16 -26 -24 -62.001 -24 -108.001c0 -47.333 7.66699 -83.333 23 -108c16 -29.333 41.333 -44 76 -44c32.667 0 58 15 76 45c15.333 26.667 23 62.334 23 107.001
c0 46 -8 82 -24 108c-16.667 28.667 -41.667 43 -75 43c-34 0 -59 -14.333 -75 -43zM149.998 627.001c-15.333 -24.667 -23 -60.668 -23 -108.001s7.66699 -83.333 23 -108c16 -29.333 41 -44 75 -44s59.333 15 76 45c15.333 26.667 23 62.334 23 107.001
c0 46 -8 82 -24 108c-16 28.667 -41 43 -75 43s-59 -14.333 -75 -43z" />
    <glyph glyph-name="ampersand" unicode="&#x26;" horiz-adv-x="711" 
d="M221 652c-20 -16.667 -30 -40.333 -30 -71c0 -22 11.333 -48.333 34 -79c11.333 -15.333 29.666 -36.666 54.999 -63.999c12 8 23.667 14.667 35 20c63.333 37.333 95 78.666 95 123.999c0 28 -9 50.333 -27 67c-19.333 19.333 -46.666 29 -81.999 29
c-34 0 -60.667 -8.66699 -80 -26zM162 491.001c-21.333 31.333 -32 60.999 -32 88.999c0 46.667 17.333 83.334 52 110.001c30 25.333 70 38 120 38c49.333 0 90 -13 122 -39c31.333 -26 47 -60.667 47 -104c0 -42 -17.667 -79 -53 -111c-32 -26 -66.333 -50 -103 -72
l200 -211c30 62 48 137.667 54 227h60c-4 -108 -27.667 -198.667 -71 -272l138 -146h-79l-92 97c-60 -74 -139 -111 -237 -111c-70.667 0 -128.667 17.667 -174 53c-47.333 37.333 -71 88.333 -71 153c0 67.333 31.667 123.333 95 168l91 50c-34 36 -56.333 63 -67 81z
M484 140l-220 232c-32 -18 -62 -37 -90 -57c-46.667 -34 -70 -75.333 -70 -124c0 -44.667 17.667 -80.667 53 -108c34.667 -27.333 77.667 -41 129 -41c82 0 148 32.667 198 98z" />
    <glyph glyph-name="quotesingle" unicode="'" horiz-adv-x="242" 
d="M182 646c0 -79.333 -33.332 -137.334 -99.999 -174.001l-22 35c47.333 32 72.666 73 75.999 123c-5.33301 -1.33301 -10 -2 -14 -2c-15.333 0 -27.666 4.66699 -36.999 14c-10 9.33301 -15 21 -15 35c0 16.667 4.66699 29.334 14 38.001s21.666 13 36.999 13
c40.667 0 61 -27.333 61 -82z" />
    <glyph glyph-name="parenleft" unicode="(" horiz-adv-x="333" 
d="M265 827c-40.667 -66.667 -72.334 -136.001 -95.001 -208.001c-28.667 -86.667 -43 -173 -43 -259s14.333 -172.333 43 -259c22.667 -71.333 54.334 -140.666 95.001 -207.999h-55c-42 63.333 -75 132 -99 206c-28.667 86.667 -43 173.667 -43 261s14.333 174 43 260
c24 74 57 143 99 207h55z" />
    <glyph glyph-name="parenright" unicode=")" horiz-adv-x="333" 
d="M123 827c41.333 -64 74.333 -132.999 99 -206.999c28.667 -89.333 43 -176 43 -260s-14.333 -171 -43 -261c-25.333 -74 -58.333 -142.667 -99 -206h-55c38.667 64 70.334 133.333 95.001 208c28.667 90 43 176.333 43 259s-14.333 169 -43 259
c-24.667 75.333 -56.334 144.666 -95.001 207.999h55z" />
    <glyph glyph-name="asterisk" unicode="*" horiz-adv-x="500" 
d="M223 714h54l-5 -204l186 69l17 -51l-190 -60l127 -155l-42 -33l-120 161l-120 -161l-41 33l126 155l-190 60l17 51l186 -69z" />
    <glyph glyph-name="plus" unicode="+" horiz-adv-x="605" 
d="M277 511h52v-226h226v-52h-226v-227h-52v227h-227v52h227v226z" />
    <glyph glyph-name="comma" unicode="," horiz-adv-x="258" 
d="M187 17c0 -78.667 -33.332 -136.333 -99.999 -173l-22 35c47.333 31.333 73 72 77 122l-15 -1c-14.667 -0 -27 4.33301 -37 13c-9.33301 8.66699 -14 20.667 -14 36c0 16.667 4.33301 29 13 37c9.33301 9.33301 21.666 14 36.999 14c40.667 0 61 -27.667 61 -83z" />
    <glyph glyph-name="hyphen" unicode="-" horiz-adv-x="605" 
d="M50 285h505v-52h-505v52z" />
    <glyph glyph-name="period" unicode="." horiz-adv-x="258" 
d="M165 86c10 -8.66699 15.001 -20.667 15.001 -36c0 -13.333 -5.33301 -25.333 -16 -36c-10.667 -9.33301 -22.334 -14 -35.001 -14c-14.667 0 -26.667 5 -36 15c-10 10 -15 21.667 -15 35c0 15.333 5 27.333 15 36c8.66699 9.33301 20.667 14 36 14
c14.667 0 26.667 -4.66699 36 -14z" />
    <glyph glyph-name="slash" unicode="/" horiz-adv-x="500" 
d="M402 820h55l-359 -920h-55z" />
    <glyph glyph-name="zero" unicode="0" 
d="M492 610c34.667 -64 52 -148.333 52 -253c0 -103.333 -17.333 -187.666 -52 -252.999c-42.667 -78.667 -106.667 -118 -192 -118s-149.333 39.333 -192 118c-34.667 63.333 -52 147.666 -52 252.999c0 106 17.333 190.333 52 253c42 78.667 106 118 192 118
s150 -39.333 192 -118zM151 568c-22 -52 -32.999 -122.333 -32.999 -211c0 -87.333 11 -157.666 33 -210.999c30 -70.667 79.667 -106 149 -106c68 0 117.667 35.333 149 106c22.667 54.667 34 125 34 211c0 87.333 -11.333 157.666 -34 210.999
c-30.667 70.667 -80.334 106 -149.001 106c-69.333 0 -119 -35.333 -149 -106z" />
    <glyph glyph-name="one" unicode="1" 
d="M350 714v-714.001h-61v638c-46 -50 -103 -85 -171 -105v62c34 10 67 25 99 45c31.333 20.667 59.333 45.334 84 74.001h49z" />
    <glyph glyph-name="two" unicode="2" 
d="M468 672c42 -36.667 62.998 -86.001 62.998 -148.001c0 -61.333 -23.667 -117.333 -71 -168c-23.333 -24.667 -72.666 -62.667 -147.999 -114c-101.333 -68.667 -157.666 -130.667 -168.999 -186h389v-56h-464c0 61.333 23.667 118 71 170
c29.333 33.333 79.333 74.333 150 123c60 42.667 100.333 74.334 121 95.001c39.333 42.667 59 88.334 59 137.001c0 47.333 -14.667 84 -44 110c-28.667 26 -67.667 39 -117 39c-52 0 -93 -17.333 -123 -52c-32 -34.667 -48 -85.334 -48 -152.001h-62c0 80 22 143 66 189
c42 46 98 69 168 69c64.667 0 117.667 -18.667 159 -56z" />
    <glyph glyph-name="three" unicode="3" 
d="M468 676c40 -34.667 60.001 -81.334 60.001 -140.001c0 -82 -38.667 -136 -116 -162c41.333 -12.667 73.333 -33.667 96 -63c23.333 -29.333 35 -64.666 35 -105.999c0 -64 -22.333 -116.667 -67 -158c-46 -40.667 -104 -61 -174 -61c-63.333 0 -116.333 16.667 -159 50
c-51.333 39.333 -80 99.666 -86 180.999h62c2.66699 -60.667 24 -107 64 -139c32 -26 71.333 -39 118 -39c54 0 98.333 15.667 133 47c32 31.333 48 70.333 48 117c0 44 -15.333 79.333 -46 106c-29.333 25.333 -69.666 38 -120.999 38h-63v50h57c50 0 89.333 11.667 118 35
c26.667 24.667 40 58.334 40 101.001c0 42 -13.667 76 -41 102c-28.667 26 -68.334 39 -119.001 39s-90.334 -14.333 -119.001 -43c-30 -28 -48 -67.667 -54 -119h-61c6 66.667 30.667 119.667 74 159c41.333 38 94.666 57 159.999 57c66.667 0 120.334 -17.333 161.001 -52
z" />
    <glyph glyph-name="four" unicode="4" 
d="M394 714h59v-496h121v-51h-121v-167h-59v167h-368v59zM391 631l-310 -413h313v413h-3z" />
    <glyph glyph-name="five" unicode="5" 
d="M112 714h404v-56h-353l-25 -263h3c21.333 25.333 47.666 44.333 78.999 57c28 12.667 59 19 93 19c68 0 123 -21 165 -63c43.333 -44.667 65 -105 65 -181c0 -70 -24.333 -128.333 -73 -175c-46.667 -44 -105 -66 -175 -66c-61.333 0 -113.666 17 -156.999 51
c-48.667 36.667 -75.667 87.334 -81 152.001h61c5.33301 -48.667 25.333 -86.334 60 -113.001c32 -24.667 71 -37 117 -37c54 0 98.667 17.667 134 53c35.333 36.667 53 81.667 53 135c0 60.667 -16.667 108.334 -50 143.001c-32 32.667 -75.667 49 -131 49
c-36 0 -68.667 -8 -98 -24c-30 -16.667 -53 -40.334 -69 -71.001h-58z" />
    <glyph glyph-name="six" unicode="6" 
d="M532 540l-60.999 -0.000976562c-16.667 90 -70.334 135 -161.001 135c-61.333 0 -109 -30.333 -143 -91c-33.333 -56.667 -50 -130.334 -50 -221.001v-35h4c16 42 42 75 78 99c34 24 74 36 120 36c68 0 122.333 -21.667 163 -65c41.333 -43.333 62 -99.666 62 -168.999
c0 -70 -22 -128 -66 -174s-100 -69 -168 -69c-86.667 0 -151.667 33 -195 99c-38.667 59.333 -58 144 -58 254c0 112.667 21.333 204.334 64 275.001c46 76 109.333 114 190 114c127.333 0 201 -62.667 221 -188zM183.001 357.999c-34.667 -34 -52.001 -77.333 -52.001 -130
s15.333 -96.667 46 -132c33.333 -38 77 -57 131 -57c52.667 0 95 18 127 54s48 81.333 48 136s-15.667 98.667 -47 132s-73.666 50 -126.999 50c-50.667 0 -92.667 -17.667 -126 -53z" />
    <glyph glyph-name="seven" unicode="7" 
d="M70 714h461v-51l-270 -663h-67l273 657h-397v57z" />
    <glyph glyph-name="eight" unicode="8" 
d="M471 671c37.333 -34 56.002 -76.667 56.002 -128c0 -37.333 -9.66699 -70.333 -29 -99c-20.667 -28.667 -50 -49 -88 -61v-4c38.667 -8 72 -29 100 -63s42 -74.333 42 -121c0 -61.333 -21.333 -111.333 -64 -150c-44.667 -39.333 -107.334 -59 -188.001 -59
s-143.334 19.667 -188.001 59c-42.667 38 -64 88 -64 150c0 46.667 14 87 42 121c26.667 34 60.334 55 101.001 63v4c-38.667 12 -68.334 32.333 -89.001 61c-19.333 27.333 -29 60.333 -29 99c0 52 18.667 94.667 56 128c40 38 97 57 171 57c73.333 0 130.333 -19 171 -57z
M171.002 634c-26 -24 -39 -55 -39 -93c0 -39.333 12 -71 36 -95c29.333 -28 73.333 -42 132 -42c58 0 102 14 132 42c24 24 36 55.667 36 95c0 38 -13 69 -39 93c-30.667 28 -73.667 42 -129 42c-56 0 -99 -14 -129 -42zM156.002 307
c-32 -28 -48.001 -65.334 -48.001 -112.001c0 -47.333 15.667 -84.666 47 -111.999c34 -30.667 82.333 -46 145 -46s111.334 15.333 146.001 46c30.667 28.667 46 66 46 112c0 46.667 -16 84 -48 112c-33.333 31.333 -81.333 47 -144 47s-110.667 -15.667 -144 -47z" />
    <glyph glyph-name="nine" unicode="9" 
d="M485 630c39.333 -60.667 58.999 -145.668 58.999 -255.001c0 -110 -21.333 -201.667 -64 -275c-46 -76 -109.333 -114 -190 -114c-127.333 0 -201 62.667 -221 188h61c16 -90 69.667 -135 161 -135c60 0 107.667 30.333 143 91c33.333 58.667 50 132.334 50 221.001v35
h-4c-16.667 -40.667 -42.667 -73.667 -78 -99c-34.667 -24 -74.667 -36 -120 -36c-68 0 -122.667 22 -164 66c-40.667 42.667 -61 98.667 -61 168c0 70 22 128 66 174s100 69 168 69c86.667 0 151.334 -32.667 194.001 -98zM165.999 620.999c-32 -36 -48 -81.333 -48 -136
s15.667 -98.667 47 -132c32 -33.333 74.333 -50 127 -50c48.667 0 90.667 17.667 126 53c34.667 36 52 79.333 52 130c0 51.333 -15.333 95.333 -46 132c-34 38 -77.667 57 -131 57c-52.667 0 -95 -18 -127 -54z" />
    <glyph glyph-name="colon" unicode=":" horiz-adv-x="258" 
d="M165 452c10 -8.66699 15.001 -20.667 15.001 -36c0 -13.333 -5.33301 -25.333 -16 -36c-10.667 -9.33301 -22.334 -14 -35.001 -14c-14.667 0 -26.667 5 -36 15c-10 10 -15 21.667 -15 35c0 15.333 5 27.333 15 36c8.66699 9.33301 20.667 14 36 14
c14.667 0 26.667 -4.66699 36 -14zM165.001 86c10 -8.66699 15.001 -20.667 15.001 -36c0 -13.333 -5.33301 -25.333 -16 -36c-10.667 -9.33301 -22.334 -14 -35.001 -14c-14.667 0 -26.667 5 -36 15c-10 10 -15 21.667 -15 35c0 15.333 5 27.333 15 36
c8.66699 9.33301 20.667 14 36 14c14.667 0 26.667 -4.66699 36 -14z" />
    <glyph glyph-name="semicolon" unicode=";" horiz-adv-x="258" 
d="M165 452c10 -8.66699 15.001 -20.667 15.001 -36c0 -13.333 -5.33301 -25.333 -16 -36c-10.667 -9.33301 -22.334 -14 -35.001 -14c-14.667 0 -26.667 5 -36 15c-10 10 -15 21.667 -15 35c0 15.333 5 27.333 15 36c8.66699 9.33301 20.667 14 36 14
c14.667 0 26.667 -4.66699 36 -14zM189.001 17c0 -78.667 -33.333 -136.332 -100 -172.999l-21 35c48 32 73.333 72.667 76 122l-15 -1c-14.667 0 -27 4.33301 -37 13c-9.33301 8.66699 -14 20.667 -14 36c0 17.333 4.66699 29.666 14 36.999c8.66699 9.33301 21 14 37 14
c40 0 60 -27.667 60 -83z" />
    <glyph glyph-name="less" unicode="&#x3c;" horiz-adv-x="605" 
d="M555 514v-58l-435 -197l435 -198v-58l-505 230v51z" />
    <glyph glyph-name="equal" unicode="=" horiz-adv-x="605" 
d="M50 387h505v-52h-505v52zM50 183h505v-52h-505v52z" />
    <glyph glyph-name="greater" unicode="&#x3e;" horiz-adv-x="605" 
d="M50 514l505 -230v-51l-505 -230v58l435 198l-435 197v58z" />
    <glyph glyph-name="question" unicode="?" horiz-adv-x="525" 
d="M421 674c36 -34 53.9951 -79.999 53.9951 -137.999c0 -41.333 -12.333 -79 -37 -113c-10.667 -12 -37 -37.667 -79 -77c-24 -20 -41 -39 -51 -57c-14 -22.667 -21 -48.334 -21 -77.001v-29h-61v29c0 29.333 6 56 18 80c14.667 32 45.334 68.333 92.001 109
c24.667 23.333 40.334 39.333 47.001 48c20.667 28 31 56.333 31 85c0 42 -12.333 76 -37 102c-25.333 25.333 -62 38 -110 38c-53.333 0 -93.333 -17.667 -120 -53c-23.333 -30.667 -35.666 -72.334 -36.999 -125.001h-60c0.666992 66.667 19.334 121.334 56.001 164.001
c38.667 45.333 93.334 68 164.001 68c64 0 114.333 -18 151 -54zM292.995 86.001c10 -8.66699 14.999 -20.667 14.999 -36c0 -14 -5 -26 -15 -36c-10.667 -9.33301 -22.667 -14 -36 -14c-14 0 -25.667 5 -35 15c-10.667 10 -16 21.667 -16 35c0 15.333 5.33301 27.333 16 36
c8.66699 9.33301 20.334 14 35.001 14s26.667 -4.66699 36 -14z" />
    <glyph glyph-name="at" unicode="@" horiz-adv-x="853" 
d="M682 636c57.333 -57.333 85.9971 -130.334 85.9971 -219.001c0 -70.667 -22.333 -135 -67 -193c-43.333 -53.333 -89.666 -80 -138.999 -80c-40.667 0 -62.667 23 -66 69c-37.333 -47.333 -81.333 -71 -132 -71c-41.333 0 -74 13.667 -98 41
c-24.667 27.333 -37 62 -37 104c0 78.667 23.333 144.667 70 198c44 52.667 95.667 79 155 79c49.333 0 82 -26.333 98 -79l17 60h50l-72 -272c-7.33301 -22 -11 -41 -11 -57c0 -18 10.333 -27 31 -27c32.667 0 65.667 20.333 99 61c38 48 57 103.667 57 167
c0 74.667 -25.333 137.334 -76 188.001c-54 52 -125 78 -213 78c-94 0 -172 -31.333 -234 -94c-62.667 -62 -94 -140.667 -94 -236c0 -102 30.333 -182 91 -240c60 -56 138.667 -84 236 -84c74 0 139 14 195 42c48.667 25.333 87.667 58.666 117 99.999h55
c-35.333 -58 -84.666 -103 -147.999 -135c-65.333 -33.333 -138.333 -50 -219 -50c-113.333 0 -205 33.333 -275 100c-70 68 -105 157.667 -105 269c0 104.667 36 192.334 108 263.001c72.667 73.333 164.667 110 276 110c102.667 0 184.334 -30.667 245.001 -92z
M338.997 450.999c-37.333 -44 -55.999 -99 -55.999 -165c0 -30 7.33301 -53.333 22 -70c15.333 -18.667 36 -28 62 -28c28.667 0 57 12 85 36c26 22 43 47 51 75l23 87c6.66699 26.667 10 42 10 46c0 19.333 -6.33301 37.333 -19 54c-13.333 19.333 -32 29 -56 29
c-46.667 0 -87.334 -21.333 -122.001 -64z" />
    <glyph glyph-name="A" unicode="A" horiz-adv-x="644" 
d="M286 714h72l286 -714h-67l-83 213h-344l-83 -213h-67zM170 265h304l-150 383h-3z" />
    <glyph glyph-name="B" unicode="B" horiz-adv-x="670" 
d="M73 714l314.003 -0.00195312c65.333 0 116.666 -15.667 153.999 -47c38 -32 57 -76 57 -132c0 -40.667 -11.667 -75.667 -35 -105c-22.667 -27.333 -52.334 -46.666 -89.001 -57.999c46.667 -8 84 -27 112 -57c27.333 -31.333 41 -70.666 41 -117.999
c0 -67.333 -24.333 -118.333 -73 -153c-42.667 -29.333 -99.334 -44 -170.001 -44h-311v714zM134.003 660.998l-0.000976562 -265.999h240c50.667 0 90.334 11.333 119.001 34c29.333 23.333 44 56.666 44 99.999c0 44 -14.333 77.333 -43 100
c-28 21.333 -67.667 32 -119 32h-241zM134.002 342.999l-0.000976562 -290.001h248c52.667 0 95.334 10.667 128.001 32c37.333 26 56 63.667 56 113c0 48.667 -17.333 85.334 -52 110.001c-32 23.333 -76.333 35 -133 35h-247z" />
    <glyph glyph-name="C" unicode="C" horiz-adv-x="725" 
d="M575 666c55.333 -42 87.666 -97.999 96.999 -167.999h-59c-8.66699 55.333 -35.667 98.333 -81 129c-42.667 30 -93.334 45 -152.001 45c-87.333 0 -156 -31 -206 -93c-46.667 -57.333 -70 -132.333 -70 -225s23 -167 69 -223c48 -59.333 115 -89 201 -89
c60 0 112.333 16.333 157 49c47.333 36 78 87 92 153h59c-15.333 -82.667 -52.666 -147.334 -111.999 -194.001c-56 -42.667 -121 -64 -195 -64c-106.667 0 -190 36.667 -250 110c-54.667 66.667 -82 152.667 -82 258s28 192.333 84 261
c60.667 75.333 145.334 113 254.001 113c76 0 140.667 -20.667 194 -62z" />
    <glyph glyph-name="D" unicode="D" horiz-adv-x="698" 
d="M73 714l254 0.000976562c111.333 0 195 -33.333 251 -100c51.333 -60.667 77 -146.334 77 -257.001c0 -108.667 -28.667 -194.667 -86 -258c-60 -66 -145 -99 -255 -99h-241v714zM134 660.001l-0.000976562 -606h171c95.333 0 168 27 218 81c48 52 72 126 72 222
c0 100 -21 174.333 -63 223c-45.333 53.333 -116.666 80 -213.999 80h-184z" />
    <glyph glyph-name="E" unicode="E" horiz-adv-x="634" 
d="M73 714h501v-54h-440v-263h416v-55h-416v-288h457v-54h-518v714z" />
    <glyph glyph-name="F" unicode="F" horiz-adv-x="574" 
d="M73 714h473v-54h-412v-265h391v-54h-391v-341h-61v714z" />
    <glyph glyph-name="G" unicode="G" horiz-adv-x="743" 
d="M586 661c48.667 -42 79.665 -101.336 92.998 -178.003h-62c-11.333 58.667 -36.666 104.334 -75.999 137.001c-41.333 34.667 -96.666 52 -165.999 52c-83.333 0 -149.666 -30 -198.999 -90c-48 -58 -72 -134.333 -72 -229c0 -92.667 24 -166.667 72 -222
c51.333 -60 124.666 -90 219.999 -90c41.333 0 82 6 122 18c40.667 12.667 73 27.334 97 44.001v203h-244v54h305v-286c-34.667 -27.333 -75.667 -48.666 -123 -63.999c-52 -16 -106 -24 -162 -24c-112 0 -199.333 36.333 -262 109c-57.333 66 -86 152 -86 258
s28.333 193.333 85 262c60.667 75.333 143 113 247 113c88 0 158.333 -22.333 211 -67z" />
    <glyph glyph-name="H" unicode="H" horiz-adv-x="711" 
d="M73 714h61v-317h443v317h61v-714h-61v342h-443v-342h-61v714z" />
    <glyph glyph-name="I" unicode="I" horiz-adv-x="225" 
d="M82 714h61v-714h-61v714z" />
    <glyph glyph-name="J" unicode="J" horiz-adv-x="506" 
d="M371 714h62v-487c0 -75.333 -15.333 -133.333 -46 -174c-35.333 -44.667 -91.333 -67 -168 -67c-64.667 0 -114 17.667 -148 53c-37.333 36.667 -56 89.667 -56 159v27h61v-26c0 -104.667 48 -157 144 -157c54 0 93 15.667 117 47c22.667 30.667 34 77 34 139v486z" />
    <glyph glyph-name="K" unicode="K" horiz-adv-x="677" 
d="M550 714h82l-328 -305l373 -409h-84l-331 370l-128 -119v-251h-61v714h61v-392z" />
    <glyph glyph-name="L" unicode="L" horiz-adv-x="586" 
d="M73 714h61v-660h429v-54h-490v714z" />
    <glyph glyph-name="M" unicode="M" horiz-adv-x="869" 
d="M73 714h81l280 -637h3l278 637h81v-714h-61v613h-3l-268 -613h-59l-267 613h-4v-613h-61v714z" />
    <glyph glyph-name="N" unicode="N" horiz-adv-x="712" 
d="M73 714h69l432 -619h3v619h62v-714h-68l-434 624h-3v-624h-61v714z" />
    <glyph glyph-name="O" unicode="O" horiz-adv-x="762" 
d="M632 620c58 -68 87 -155.667 87 -263c0 -108 -29 -196 -87 -264c-62 -71.333 -145.667 -107 -251 -107c-106 0 -189.667 36 -251 108c-58 68 -87 155.667 -87 263s29 195 87 263c62 72 146 108 252 108c104.667 0 188 -36 250 -108zM176 582
c-48 -58 -72 -132.999 -72 -224.999c0 -94 23.667 -169 71 -225c50 -60 118.667 -90 206 -90c86.667 0 155 29.667 205 89c48 57.333 72 132.666 72 225.999c0 94.667 -24 170 -72 226c-49.333 59.333 -117.333 89 -204 89c-87.333 0 -156 -30 -206 -90z" />
    <glyph glyph-name="P" unicode="P" horiz-adv-x="634" 
d="M73 714h290c158.667 0 238 -68.333 238 -205c0 -137.333 -79.667 -206 -239 -206h-228v-303h-61v714zM134 660l-0.000976562 -303h225c60.667 0 106.334 12.667 137.001 38c28.667 25.333 43 63.333 43 114c0 50 -14.333 87.333 -43 112c-30 26 -75.667 39 -137 39h-225z
" />
    <glyph glyph-name="Q" unicode="Q" horiz-adv-x="762" 
d="M632 620c58 -68 87.001 -155.668 87.001 -263.001c0 -108 -29 -196 -87 -264l-10 -12l84 -116l-42 -36c-34.667 50.667 -62.334 89.334 -83.001 116.001c-55.333 -39.333 -122 -59 -200 -59c-106 0 -189.667 36 -251 108c-58 68 -87 155.667 -87 263s29 195 87 263
c62 72 146 108 252 108c104.667 0 188 -36 250 -108zM176.001 581.999c-48 -58 -72.001 -133 -72.001 -225c0 -94 23.667 -169 71 -225c50 -60 118.667 -90 206 -90c64.667 0 119.334 16.667 164.001 50c-41.333 52.667 -84.333 103 -129 151l38 37
c48 -51.333 91.667 -101.666 131 -150.999c0 1.33301 0.333008 2 1 2c48 57.333 72 132.666 72 225.999c0 94.667 -24 170 -72 226c-49.333 59.333 -117.333 89 -204 89c-87.333 0 -156 -30 -206 -90z" />
    <glyph glyph-name="R" unicode="R" horiz-adv-x="665" 
d="M73 714l302.001 0.00195312c71.333 0 126.666 -16.667 165.999 -50c40.667 -34.667 61 -83.334 61 -146.001c0 -40.667 -11.333 -77 -34 -109c-24 -32 -57.667 -53 -101 -63v-2c72 -16 112 -60 120 -132l10 -107c4 -44.667 15.667 -79.667 35 -105h-67
c-14.667 23.333 -24 55.666 -28 96.999l-9 98c-4 44 -20.333 75.667 -49 95c-26 18 -62.333 27 -109 27h-236v-317h-61v714zM134.001 660.002l0.000976562 -289h235c55.333 0 98.666 13.667 129.999 41c28 26 42 60.667 42 104c0 47.333 -13.667 83 -41 107
c-27.333 24.667 -71.333 37 -132 37h-234z" />
    <glyph glyph-name="S" unicode="S" horiz-adv-x="622" 
d="M492 671c47.333 -38 74.001 -94 80.001 -168h-61c-8 55.333 -29 97.666 -63 126.999c-33.333 28.667 -81.333 43 -144 43c-57.333 0 -102.666 -10 -135.999 -30c-37.333 -21.333 -56 -55 -56 -101c0 -39.333 22.333 -71 67 -95c24 -11.333 69.667 -26.666 137 -45.999
c92.667 -26.667 154 -49.334 184 -68.001c59.333 -35.333 89 -85.333 89 -150c0 -61.333 -25.667 -110 -77 -146c-48.667 -34 -113.667 -51 -195 -51c-82 0 -146.667 18.667 -194 56c-54 42.667 -84 107.334 -90 194.001h60c7.33301 -67.333 30.666 -117.333 69.999 -150
c36.667 -29.333 87.667 -44 153 -44c62 0 113 12.333 153 37c38.667 25.333 58 59 58 101c0 48.667 -24.333 86.667 -73 114c-26.667 15.333 -79 33.666 -157 54.999c-85.333 24 -140 43 -164 57c-54.667 30.667 -82 75.334 -82 134.001c0 62 25.667 109.333 77 142
c45.333 30.667 104.666 46 177.999 46c78 0 140 -19 186 -57z" />
    <glyph glyph-name="T" unicode="T" horiz-adv-x="621" 
d="M18 714h585v-54h-262v-660h-61v660h-262v54z" />
    <glyph glyph-name="U" unicode="U" horiz-adv-x="702" 
d="M73 714l60.999 0.000976562v-438c0 -77.333 16.667 -135 50 -173c36 -41.333 91.667 -62 167 -62s131 20.667 167 62c33.333 39.333 50 97 50 173v438h61v-438c0 -92 -22.333 -163 -67 -213c-47.333 -51.333 -117.666 -77 -210.999 -77s-163.333 25.333 -210 76
c-45.333 49.333 -68 120.666 -68 213.999v438z" />
    <glyph glyph-name="V" unicode="V" horiz-adv-x="627" 
d="M5 714h68l239 -649h3l239 649h68l-269 -714h-78z" />
    <glyph glyph-name="W" unicode="W" horiz-adv-x="917" 
d="M5 714h69l171 -632h3l175 632h71l175 -632h3l171 632h69l-205 -714h-72l-175 628h-3l-175 -628h-72z" />
    <glyph glyph-name="X" unicode="X" horiz-adv-x="621" 
d="M26 714h76l208 -293l209 293h76l-248 -343l269 -371h-77l-229 323l-229 -323h-76l268 371z" />
    <glyph glyph-name="Y" unicode="Y" horiz-adv-x="645" 
d="M5 714h75l243 -363l242 363h75l-287 -420v-294h-61v294z" />
    <glyph glyph-name="Z" unicode="Z" horiz-adv-x="615" 
d="M55 714h511v-53l-462 -607h486v-54h-565v53l463 607h-433v54z" />
    <glyph glyph-name="bracketleft" unicode="[" horiz-adv-x="333" 
d="M50 827h233v-52h-177v-830h177v-52h-233v934z" />
    <glyph glyph-name="backslash" unicode="\" horiz-adv-x="500" 
d="M43 820h55l359 -920h-55z" />
    <glyph glyph-name="bracketright" unicode="]" horiz-adv-x="333" 
d="M50 827h233v-934h-233v52h177v830h-177v52z" />
    <glyph glyph-name="asciicircum" unicode="^" horiz-adv-x="502" 
d="M221 714h60l161 -344h-52l-139 290l-138 -290h-53z" />
    <glyph glyph-name="underscore" unicode="_" horiz-adv-x="500" 
d="M0 -88h500v-52h-500v52z" />
    <glyph glyph-name="grave" unicode="`" horiz-adv-x="333" 
d="M78 722h72l105 -146h-44z" />
    <glyph glyph-name="a" unicode="a" horiz-adv-x="552" 
d="M443 472c30.667 -34 45.999 -80.333 45.999 -139v-333h-57v99c-21.333 -30.667 -49.333 -56.334 -84 -77.001c-40.667 -24 -85.667 -36 -135 -36c-50.667 0 -91.667 13 -123 39c-31.333 26.667 -47 62.334 -47 107.001c0 66 27 114 81 144c43.333 24.667 101 37 173 37
l132 1v19c0 98 -50 147 -150 147c-46 0 -82 -9.66699 -108 -29c-29.333 -19.333 -47 -49.333 -53 -90h-59c8 58 32.333 101.333 73 130c37.333 26.667 87.333 40 150 40c72.667 0 126.334 -19.667 161.001 -59zM428.999 265l-128.999 -0.998047
c-130.667 -0.666992 -196 -44.334 -196 -131.001c0 -28.667 11 -52 33 -70c21.333 -18 50.666 -27 87.999 -27c54 0 102 18 144 54c40 35.333 60 73.666 60 114.999v60z" />
    <glyph glyph-name="b" unicode="b" horiz-adv-x="576" 
d="M63 728h60.001v-320c38 82 98.333 123 181 123c73.333 0 130.666 -27.667 171.999 -83c38 -50 57 -113 57 -189c0 -77.333 -19 -141 -57 -191c-42.667 -54.667 -100.667 -82 -174 -82c-86 0 -146.667 38.667 -182 116v-102h-57v728zM167.001 418
c-30.667 -39.333 -46.001 -91.001 -46.001 -155.001v-12c0 -61.333 14.333 -111.333 43 -150c30.667 -42.667 74.334 -64 131.001 -64c58 0 103 22 135 66c28 39.333 42 91.333 42 156s-14.333 116.334 -43 155.001c-32 44 -77.333 66 -136 66
c-53.333 0 -95.333 -20.667 -126 -62z" />
    <glyph glyph-name="c" unicode="c" horiz-adv-x="538" 
d="M432 486c39.333 -30 63 -76.001 71 -138.001h-60c-6.66699 43.333 -24 76 -52 98s-64.667 33 -110 33c-54.667 0 -98 -21 -130 -63c-31.333 -39.333 -47 -93 -47 -161c0 -66 15 -118.667 45 -158s73.667 -59 131 -59c96 0 151.333 49 166 147h59
c-10 -65.333 -34.667 -115 -74 -149c-38.667 -33.333 -89 -50 -151 -50c-76.667 0 -136 26 -178 78c-39.333 47.333 -59 111 -59 191c0 78.667 20.333 143.334 61 194.001c42.667 54.667 101.667 82 177 82c62 0 112.333 -15 151 -45z" />
    <glyph glyph-name="d" unicode="d" horiz-adv-x="576" 
d="M453 728h60.001v-728h-57v102c-36 -77.333 -96.333 -116 -181 -116c-74 0 -132.333 27.333 -175 82c-38 50 -57 113.667 -57 191c0 76 19 139 57 189c41.333 55.333 98.666 83 171.999 83c82.667 0 143 -41 181 -123v320zM147.001 414
c-28.667 -37.333 -43 -89.001 -43 -155.001c0 -64.667 14 -116.667 42 -156c31.333 -44 76.333 -66 135 -66c56 0 99.667 21.333 131 64c28.667 40 43 90 43 150v12c0 62.667 -15.333 114.334 -46 155.001c-31.333 41.333 -73.333 62 -126 62c-58.667 0 -104 -22 -136 -66z
" />
    <glyph glyph-name="e" unicode="e" horiz-adv-x="548" 
d="M456 448c36.667 -49.333 56.333 -118.332 59 -206.999h-420c3.33301 -63.333 20.333 -113 51 -149c32 -36 74.667 -54 128 -54c46 0 84 12.333 114 37c24 20.667 42.333 51 55 91h61c-12 -50 -35 -91 -69 -123c-42 -38 -95.667 -57 -161 -57
c-72.667 0 -130.667 24.667 -174 74c-44.667 49.333 -67 115.666 -67 198.999c0 76 21.333 139.667 64 191c44 54 102.333 81 175 81c82 0 143.333 -27.667 184 -83zM149.999 426.001c-31.333 -35.333 -49.333 -80.667 -54 -136h356c-10 126 -69.667 189 -179 189
c-51.333 0 -92.333 -17.667 -123 -53z" />
    <glyph glyph-name="f" unicode="f" horiz-adv-x="370" 
d="M365 714v-53h-87c-26.667 0 -45.667 -6.66699 -57 -20c-12 -12.667 -18 -34 -18 -64v-60h155v-52h-155v-465h-60v465h-138v52h138v61c0 44 10.667 77 32 99c22 24.667 54.667 37 98 37h92z" />
    <glyph glyph-name="g" unicode="g" horiz-adv-x="584" 
d="M461 413l-0.000976562 104.001h60v-479c0 -166.667 -77.333 -250 -232 -250c-67.333 0 -119.666 14.667 -156.999 44c-35.333 28 -57.333 69.333 -66 124h60c7.33301 -38.667 23.333 -67.334 48 -86.001c26.667 -21.333 65 -32 115 -32c114.667 0 172 64.333 172 193v99
c-38 -78.667 -99.667 -118 -185 -118c-72 0 -129.667 25.667 -173 77c-40 48 -60 108.667 -60 182s20 134 60 182c43.333 52 101 78 173 78c85.333 0 147 -39.333 185 -118zM149.999 418.001c-30.667 -37.333 -46.002 -86.333 -46.002 -147
c0 -58.667 14.333 -106.667 43 -144c31.333 -42 76.333 -63 135 -63c57.333 0 102 20 134 60c30 38 45 87 45 147s-15 109 -45 147c-31.333 41.333 -75.666 62 -132.999 62s-101.666 -20.667 -132.999 -62z" />
    <glyph glyph-name="h" unicode="h" horiz-adv-x="545" 
d="M63 728h61v-305c18 35.333 42 62.333 72 81c29.333 18 62 27 98 27c59.333 0 105.333 -17.333 138 -52c33.333 -35.333 50 -85 50 -149v-330h-60v322c0 49.333 -12.667 88.333 -38 117c-26 26.667 -61.667 40 -107 40c-42.667 0 -79 -17.333 -109 -52
c-29.333 -33.333 -44 -76 -44 -128v-299h-61v728z" />
    <glyph glyph-name="i" unicode="i" horiz-adv-x="246" 
d="M159 688c10 -8 15.001 -19.667 15.001 -35c0 -13.333 -5.33301 -25.333 -16 -36c-10.667 -9.33301 -22.334 -14 -35.001 -14c-14.667 0 -26.667 4.66699 -36 14c-10 10 -15 22 -15 36c0 15.333 5 27 15 35c9.33301 10 21.333 15 36 15c14 0 26 -5 36 -15zM93.001 517h60
v-517h-60v517z" />
    <glyph glyph-name="j" unicode="j" horiz-adv-x="261" 
d="M175 688c9.33301 -8 14 -19.667 14 -35c0 -13.333 -4.66699 -25.333 -14 -36c-10.667 -9.33301 -23 -14 -37 -14c-13.333 0 -25.333 4.66699 -36 14c-10 10 -15 22 -15 36c0 15.333 5 27 15 35c10 10 22 15 36 15c14.667 0 27 -5 37 -15zM108 517h60v-584
c0 -87.333 -45 -131 -135 -131h-48v52h44c52.667 0 79 27 79 81v582z" />
    <glyph glyph-name="k" unicode="k" horiz-adv-x="515" 
d="M63 728h60v-472l287 261h82l-227 -205l250 -312h-79l-214 273l-99 -90v-183h-60v728z" />
    <glyph glyph-name="l" unicode="l" horiz-adv-x="224" 
d="M82 728h60v-728h-60v728z" />
    <glyph glyph-name="m" unicode="m" horiz-adv-x="838" 
d="M435 425c18 34.667 40.999 61 68.999 79c26 18 57.333 27 94 27c54.667 0 98 -17 130 -51c31.333 -34.667 47 -82 47 -142v-338h-60v330c0 49.333 -10 86 -30 110c-22 26 -56.333 39 -103 39c-38 0 -69.333 -14.333 -94 -43c-25.333 -27.333 -38 -63 -38 -107v-329h-61
v330c0 99.333 -43 149 -129 149c-39.333 0 -71.666 -15.667 -96.999 -47c-26.667 -30.667 -40 -68.667 -40 -114v-318h-60v517h60v-78c36.667 61.333 86.667 92 150 92c82 0 136 -35.333 162 -106z" />
    <glyph glyph-name="n" unicode="n" horiz-adv-x="546" 
d="M483 318l-0.000976562 -318h-60v314c0 110 -49 165 -147 165c-41.333 0 -76 -15 -104 -45c-29.333 -29.333 -45.666 -70 -48.999 -122v-312h-60v517h60v-85c18 30.667 41.333 55 70 73c28 17.333 60.667 26 98 26c128 0 192 -71 192 -213z" />
    <glyph glyph-name="o" unicode="o" horiz-adv-x="578" 
d="M472 449c42 -50.667 62.999 -114.334 62.999 -191.001c0 -75.333 -21 -138.666 -63 -189.999c-46.667 -54.667 -107.667 -82 -183 -82s-136.333 27.333 -183 82c-42 51.333 -63 114.666 -63 189.999c0 76.667 21.333 140.334 64 191.001
c44.667 54.667 105.334 82 182.001 82c76 0 137 -27.333 183 -82zM149.999 411c-30.667 -39.333 -46.001 -90.333 -46.001 -153c0 -62 15.333 -112.667 46 -152c34 -45.333 80.333 -68 139 -68c59.333 0 106 22.667 140 68c30.667 42 46 92.667 46 152
c0 61.333 -15.333 112.333 -46 153c-33.333 45.333 -80 68 -140 68c-59.333 0 -105.666 -22.667 -138.999 -68z" />
    <glyph glyph-name="p" unicode="p" horiz-adv-x="576" 
d="M476 448c38 -50 57.001 -113.667 57.001 -191c0 -75.333 -18.667 -138.333 -56 -189c-42.667 -54.667 -100.334 -82 -173.001 -82c-82.667 0 -143 40.667 -181 122v-306h-60v715h57v-102c38 77.333 98.667 116 182 116c73.333 0 131.333 -27.667 174 -83zM164.001 414
c-28.667 -38.667 -43 -89.667 -43 -153v-11c0 -62.667 15.333 -113.667 46 -153c31.333 -40 73.333 -60 126 -60c58 0 103.333 21.333 136 64c28 39.333 42 91.333 42 156s-13.667 116.667 -41 156c-32 44.667 -77 67 -135 67c-56 0 -99.667 -22 -131 -66z" />
    <glyph glyph-name="q" unicode="q" horiz-adv-x="576" 
d="M456 415v102h57v-715h-60v306c-38 -81.333 -98.333 -122 -181 -122c-74 0 -131.333 27.333 -172 82c-38 50 -57 113 -57 189c0 78 19.333 141.667 58 191c41.333 55.333 99.333 83 174 83c82.667 0 143 -38.667 181 -116zM146 413c-27.333 -38 -41 -90 -41 -156
c0 -65.333 14.333 -117.333 43 -156c30.667 -42.667 75.667 -64 135 -64c53.333 0 95.333 20 126 60c30.667 40.667 46 91.667 46 153v11c0 62 -14.333 113 -43 153c-32 44 -75.667 66 -131 66c-59.333 0 -104.333 -22.333 -135 -67z" />
    <glyph glyph-name="r" unicode="r" horiz-adv-x="360" 
d="M355 520l-0.000976562 -61.001c-24.667 7.33301 -51 11 -79 11c-47.333 0 -84.666 -20.667 -111.999 -62c-27.333 -37.333 -41 -82.333 -41 -135v-273h-60v517h60v-99c14 32.667 33 58.334 57 77.001c28 24 61.333 36 100 36c32 0 57 -3.66699 75 -11z" />
    <glyph glyph-name="s" unicode="s" horiz-adv-x="493" 
d="M445 372h-59c-6.66699 36 -21 62.333 -43 79c-23.333 18.667 -58.333 28 -105 28c-38.667 0 -69.667 -7.66699 -93 -23c-24 -16 -36 -36.667 -36 -62c0 -26 15.333 -47 46 -63c20.667 -10 57 -22 109 -36c63.333 -16 108 -32 134 -48c41.333 -25.333 62 -60 62 -104
c0 -104.667 -70 -157 -210 -157c-132.667 0 -205 59 -217 177h59c6 -45.333 22 -78 48 -98c24 -18 60 -27 108 -27c100 0 150 34 150 102c0 31.333 -17 55.333 -51 72c-18.667 9.33301 -57 21.333 -115 36c-60.667 16 -102.667 31.333 -126 46
c-39.333 23.333 -59 56.333 -59 99c0 42 18.667 75.667 56 101c35.333 24.667 80.666 37 135.999 37c122.667 0 191.334 -53 206.001 -159z" />
    <glyph glyph-name="t" unicode="t" horiz-adv-x="351" 
d="M188 684v-167h135v-52h-135v-350c0 -22.667 4 -39 12 -49c8 -9.33301 23 -14 45 -14h65v-52h-73c-40 -0 -68.667 10.333 -86 31c-15.333 17.333 -23 45.333 -23 84v350h-110v52h110v142z" />
    <glyph glyph-name="u" unicode="u" horiz-adv-x="547" 
d="M63 517h60v-316c0 -54 11.333 -94.333 34 -121c24 -28 61 -42 111 -42c39.333 0 74.333 15.333 105 46c30 30 47 69.667 51 119v314h60v-517h-60v87c-40 -67.333 -97.333 -101 -172 -101c-126 0 -189 70.667 -189 212v319z" />
    <glyph glyph-name="v" unicode="v" horiz-adv-x="468" 
d="M5 517h66l163 -441l162 441h67l-198 -517h-62z" />
    <glyph glyph-name="w" unicode="w" horiz-adv-x="742" 
d="M5 517h67l140 -440l130 440h58l130 -440l141 440h66l-177 -517h-58l-130 439l-132 -439h-57z" />
    <glyph glyph-name="x" unicode="x" horiz-adv-x="493" 
d="M27 517h72l148 -199l148 199h71l-185 -244l207 -273h-72l-169 228l-170 -228h-72l208 273z" />
    <glyph glyph-name="y" unicode="y" horiz-adv-x="478" 
d="M5 517h66l169 -431l167 431h66l-285 -715h-65l87 211z" />
    <glyph glyph-name="z" unicode="z" horiz-adv-x="477" 
d="M35 517h401v-46l-334 -419h350v-52h-427v47l333 418h-323v52z" />
    <glyph glyph-name="braceleft" unicode="{" horiz-adv-x="333" 
d="M306 827v-49.0029h-54c-48.667 0 -73 -27 -73 -81v-218c0 -59.333 -26 -99 -78 -119c52 -22 78 -61.667 78 -119v-219c0 -53.333 24.333 -80 73 -80h54v-49h-62c-38 0 -68 12 -90 36c-20.667 22.667 -31 54 -31 94v216c0 30.667 -6.33301 53.334 -19 68.001
c-15.333 17.333 -41 26 -77 26v54c36 1.33301 61.667 10 77 26c12.667 14.667 19 37.334 19 68.001v215c0 40.667 10.333 72.334 31 95.001c22 24 52 36 90 36h62z" />
    <glyph glyph-name="bar" unicode="|" horiz-adv-x="184" 
d="M66 860h52v-1000h-52v1000z" />
    <glyph glyph-name="braceright" unicode="}" horiz-adv-x="333" 
d="M27 827l62 -0.000976562c38 0 68 -12 90 -36c20.667 -24 31 -55.667 31 -95v-215c0 -31.333 6.33301 -54.333 19 -69c14 -15.333 39.667 -23.666 77 -24.999v-54c-36 0 -61.333 -8.33301 -76 -25c-13.333 -14 -20 -37 -20 -69v-216c0 -38.667 -10.333 -70 -31 -94
c-22 -24 -52 -36 -90 -36h-62v49h54c48.667 0 73 26.667 73 80v219c0 57.333 26 97 78 119c-52 20 -78 59.667 -78 119v218c0 54 -24.333 81 -73 81h-54v49z" />
    <glyph glyph-name="asciitilde" unicode="~" horiz-adv-x="500" 
d="M258 385c44 -30 76.0029 -45 96.0029 -45c25.333 0 54 24 86 72l39 -28c-42.667 -62.667 -84.334 -94 -125.001 -94c-28.667 0 -65.334 15.333 -110.001 46c-44.667 30 -77.334 45 -98.001 45c-26 0 -54.667 -24 -86 -72l-39 28c42 62.667 83.667 94 125 94
c30 0 67.333 -15.333 112 -46z" />
    <glyph glyph-name="uni007F" horiz-adv-x="0" 
 />
    <glyph glyph-name="uni00A0" unicode="&#xa0;" horiz-adv-x="333" 
 />
    <glyph glyph-name="cent" unicode="&#xa2;" 
d="M378 622l37.002 101.999l38 -13l-37 -101c13.333 -5.33301 27.333 -13.666 42 -24.999c39.333 -30 63 -76 71 -138h-60c-6.66699 43.333 -23.667 76 -51 98c-4.66699 3.33301 -11.667 7.66602 -21 12.999l-151 -412c18 -6 38.333 -9 61 -9c95.333 0 150.333 49 165 147
h60c-10.667 -64 -35.334 -113.333 -74.001 -148c-38 -34 -88.667 -51 -152 -51c-26.667 0 -52.667 3.66699 -78 11l-43 -116l-39 14l43 118c-22.667 13.333 -42.667 30.333 -60 51c-40 48 -60 111.667 -60 191c0 78.667 20.333 143.334 61 194.001
c44 54.667 103.333 82 178 82c27.333 0 50.666 -2.66699 69.999 -8zM359.002 571.999c-16 4 -33 6 -51 6c-55.333 0 -99 -21 -131 -63c-30.667 -39.333 -46 -93 -46 -161c0 -67.333 14.667 -119.666 44 -156.999c10.667 -12.667 21.667 -23.334 33 -32.001z" />
    <glyph glyph-name="sterling" unicode="&#xa3;" 
d="M509 643c24 -37.333 37.999 -83.668 41.999 -139.001h-62c-4.66699 55.333 -18.667 96.666 -42 123.999c-26 30.667 -64.667 46 -116 46c-48 0 -86 -14.333 -114 -43c-26.667 -26.667 -40 -62 -40 -106c0 -36 7.66699 -84.667 23 -146l1 -6h216v-40h-207
c8 -40.667 12 -72.667 12 -96c0 -74 -28 -135 -84 -183h395v-54h-471v56c68.667 44.667 103 103.334 103 176.001c0 24.667 -5 58.334 -15 101.001h-111v40h102c-0.666992 0.666992 -1 1.66699 -1 3c-16 66 -24 116 -24 150c0 58 19.333 106 58 144
c38.667 38.667 91.334 58 158.001 58c80 0 139 -28.333 177 -85z" />
    <glyph glyph-name="currency" unicode="&#xa4;" 
d="M80 612l76.999 -76.999c42 34 89.667 51 143 51s101 -17 143 -51l77 77l32 -32l-77 -77c34 -40.667 51 -88 51 -142c0 -52.667 -17.333 -100.334 -52 -143.001l78 -77l-32 -32l-78 77c-40.667 -34 -88 -51 -142 -51c-53.333 0 -100.666 17 -141.999 51l-77 -77l-32 32
l77 77c-34 42 -51 89.667 -51 143c0 54.667 16.667 102 50 142l-77 77zM182.999 478.001c-32.667 -32 -49 -71 -49 -117s16.333 -85.333 49 -118s71.667 -49 117 -49c44.667 0 84 16.333 118 49c32.667 34 49 73.333 49 118c0 45.333 -16.333 84.333 -49 117s-72 49 -118 49
s-85 -16.333 -117 -49z" />
    <glyph glyph-name="yen" unicode="&#xa5;" 
d="M34 714h74l192 -344l192 344h74l-211 -366h161v-41h-184v-105h184v-41h-184v-161h-64v161h-184v41h184v105h-184v41h161z" />
    <glyph glyph-name="brokenbar" unicode="&#xa6;" horiz-adv-x="184" 
d="M66 714h52v-308h-52v308zM66 308h52v-308h-52v308z" />
    <glyph glyph-name="copyright" unicode="&#xa9;" horiz-adv-x="802" 
d="M664 620c72 -72 108 -159.667 108 -263c0 -102 -36 -189.667 -108 -263c-72.667 -72 -160.334 -108 -263.001 -108c-103.333 0 -191 36 -263 108c-72 73.333 -108 161 -108 263c0 103.333 36 191 108 263s159.667 108 263 108c102.667 0 190.334 -36 263.001 -108z
M166 592c-64.667 -64 -97 -142.333 -97 -235c0 -92 32.333 -170.333 97 -235s143 -97 235 -97c90.667 0 169 32.333 235 97c64.667 66 97 144.333 97 235c0 92 -32.333 170.333 -97 235s-143 97 -235 97c-92.667 0 -171 -32.333 -235 -97zM533 551
c34.667 -26 55.999 -63 63.999 -111h-53c-6 31.333 -21.333 55.666 -46 72.999c-24 17.333 -53.333 26 -88 26c-52.667 0 -92.667 -17.667 -120 -53c-27.333 -32 -41 -75.667 -41 -131c0 -53.333 14 -96.666 42 -129.999s66.667 -50 116 -50c35.333 0 66 10 92 30
s43 48.667 51 86h53c-11.333 -54 -35 -95.667 -71 -125c-34 -26 -75.667 -39 -125 -39c-68 0 -121 23 -159 69c-34.667 41.333 -52 94.333 -52 159c0 66 17.667 119.667 53 161c38.667 47.333 92.334 71 161.001 71c49.333 0 90.333 -12 123 -36z" />
    <glyph glyph-name="guillemotleft" unicode="&#xab;" horiz-adv-x="565" 
d="M535 582v-56l-238 -165l238 -165v-57l-285 198v48zM315 582v-56l-238 -165l238 -165v-57l-285 198v48z" />
    <glyph glyph-name="logicalnot" unicode="&#xac;" horiz-adv-x="605" 
d="M50 285h505v-217h-52v165h-453v52z" />
    <glyph glyph-name="uni00AD" unicode="&#xad;" horiz-adv-x="333" 
d="M42 285h250v-52h-250v52z" />
    <glyph glyph-name="registered" unicode="&#xae;" horiz-adv-x="802" 
d="M664 620c72 -72 108 -159.667 108 -263c0 -102 -36 -189.667 -108 -263c-72.667 -72 -160.334 -108 -263.001 -108c-103.333 0 -191 36 -263 108c-72 73.333 -108 161 -108 263c0 103.333 36 191 108 263s159.667 108 263 108c102.667 0 190.334 -36 263.001 -108z
M166 592c-64.667 -64 -97 -142.333 -97 -235c0 -92 32.333 -170.333 97 -235s143 -97 235 -97c90.667 0 169 32.333 235 97c64.667 66 97 144.333 97 235c0 92 -32.333 170.333 -97 235s-143 97 -235 97c-92.667 0 -171 -32.333 -235 -97zM235 578l183.001 -0.000976562
c45.333 0 80.666 -10.667 105.999 -32c26.667 -21.333 40 -51.666 40 -90.999c0 -52.667 -24.333 -87.667 -73 -105c25.333 -8.66699 42.666 -23.334 51.999 -44.001c7.33301 -14.667 12 -37 14 -67c4 -49.333 13.333 -83.666 28 -102.999h-61
c-9.33301 18 -15.666 49.667 -18.999 95c-2.66699 35.333 -10.667 59.333 -24 72c-14 14.667 -38.667 22 -74 22h-118v-189h-54v442zM289.001 530.999v-157.999h122c31.333 0 56.333 7.33301 75 22c16.667 15.333 25 34.666 25 57.999c0 52 -33.333 78 -100 78h-122z" />
    <glyph glyph-name="degree" unicode="&#xb0;" horiz-adv-x="328" 
d="M249 791c24 -22.667 36 -51 36 -85c0 -32.667 -12 -61 -36 -85s-52.333 -36 -85 -36c-33.333 0 -61.666 12 -84.999 36c-24 24 -36 52.333 -36 85c0 34 12 62.333 36 85c23.333 24 51.666 36 84.999 36c32.667 0 61 -12 85 -36zM106 765c-16.667 -16 -25 -35.667 -25 -59
c0 -22.667 8.33301 -42 25 -58c16 -16 35.333 -24 58 -24s42 8 58 24s24 35.333 24 58c0 23.333 -8 43 -24 59s-35.333 24 -58 24s-42 -8 -58 -24z" />
    <glyph glyph-name="plusminus" unicode="&#xb1;" horiz-adv-x="605" 
d="M277 517h52v-166h226v-52h-226v-166h-52v166h-227v52h227v166zM50 52h505v-52h-505v52z" />
    <glyph glyph-name="acute" unicode="&#xb4;" horiz-adv-x="333" 
d="M183 901h72l-133 -146h-44z" />
    <glyph glyph-name="periodcentered" unicode="&#xb7;" horiz-adv-x="500" 
d="M299 410c14 -12.667 21 -29 21 -49c0 -19.333 -7 -36 -21 -50s-30.333 -21 -49 -21c-19.333 0 -35.666 7 -48.999 21c-14 14 -21 30.667 -21 50c0 20 7 36.333 21 49c13.333 14 29.666 21 48.999 21c18.667 0 35 -7 49 -21z" />
    <glyph glyph-name="guillemotright" unicode="&#xbb;" horiz-adv-x="565" 
d="M250 582l285 -197v-48l-285 -198v57l238 165l-238 165v56zM30 582l285 -197v-48l-285 -198v57l238 165l-238 165v56z" />
    <glyph glyph-name="uni02BB" unicode="&#x2bb;" horiz-adv-x="500" 
d="M311 802c-48.667 -31.333 -74.332 -72.332 -76.999 -122.999c2.66699 1.33301 7.66699 2 15 2c15.333 0 27.666 -4.33301 36.999 -13c9.33301 -9.33301 14 -21.333 14 -36s-4.33301 -27.334 -13 -38.001c-10.667 -8.66699 -23 -13 -37 -13c-40.667 0 -61 27.333 -61 82
c0 80 33.333 138 100 174z" />
    <glyph glyph-name="afii57929" unicode="&#x2bc;" horiz-adv-x="500" 
d="M311 755c0 -79.333 -33.334 -137.334 -100.001 -174.001l-22 35c47.333 31.333 73 72.333 77 123c-5.33301 -1.33301 -10.333 -2 -15 -2c-15.333 0 -27.666 4.66699 -36.999 14c-9.33301 8.66699 -14 20.334 -14 35.001c0 16.667 4.33301 29 13 37
c8.66699 9.33301 21 14 37 14c40.667 0 61 -27.333 61 -82z" />
    <glyph glyph-name="uni0325" unicode="&#x325;" horiz-adv-x="500" 
d="M310 -57c16 -16 24 -36 24 -60c0 -22.667 -8 -42.667 -24 -60c-16.667 -16 -36.667 -24 -60 -24c-24 0 -44 8 -60 24c-16 17.333 -24 37.333 -24 60c0 24 8 44 24 60s36 24 60 24c23.333 0 43.333 -8 60 -24zM211 -77c-10.667 -10.667 -16 -24 -16 -40
c0 -15.333 5.33301 -28.333 16 -39s23.667 -16 39 -16c14 0 27 5.33301 39 16c10.667 12 16 25 16 39c0 14.667 -5.33301 28 -16 40c-10.667 10.667 -23.667 16 -39 16c-16 0 -29 -5.33301 -39 -16z" />
    <glyph glyph-name="uni0326" unicode="&#x326;" horiz-adv-x="500" 
d="M238 -26h64l-54 -185h-49z" />
    <glyph glyph-name="uni0331" unicode="&#x331;" horiz-adv-x="500" 
d="M105 -104h290v-40h-290v40z" />
    <glyph glyph-name="uni0338" unicode="&#x338;" horiz-adv-x="500" 
d="M401 530l31 -19l-333 -525l-32 19z" />
    <glyph glyph-name="endash" unicode="&#x2013;" horiz-adv-x="824" 
d="M50 390h724v-60h-724v60z" />
    <glyph glyph-name="emdash" unicode="&#x2014;" horiz-adv-x="1000" 
d="M0 386h1000v-52h-1000v52z" />
    <glyph glyph-name="quoteleft" unicode="&#x2018;" horiz-adv-x="322" 
d="M242 802c-48.667 -31.333 -74.332 -72.332 -76.999 -122.999c2.66699 1.33301 7.66699 2 15 2c15.333 0 27.666 -4.33301 36.999 -13c9.33301 -9.33301 14 -21.333 14 -36s-4.33301 -27.334 -13 -38.001c-10.667 -8.66699 -23 -13 -37 -13c-40.667 0 -61 27.333 -61 82
c0 80 33.333 138 100 174z" />
    <glyph glyph-name="quoteright" unicode="&#x2019;" horiz-adv-x="322" 
d="M202 755c0 -79.333 -33.333 -137.332 -100 -173.999l-22 35c47.333 32 72.666 73 75.999 123c-5.33301 -1.33301 -10 -2 -14 -2c-15.333 0 -27.666 4.66699 -36.999 14c-10 9.33301 -15 21 -15 35c0 17.333 4.66699 29.666 14 36.999c8.66699 9.33301 21 14 37 14
c40.667 0 61 -27.333 61 -82z" />
    <glyph glyph-name="quotesinglbase" unicode="&#x201a;" horiz-adv-x="322" 
d="M202 60c0 -79.333 -33.332 -137.334 -99.999 -174.001l-22 35c47.333 32 72.666 73 75.999 123c-5.33301 -1.33301 -10 -2 -14 -2c-15.333 0 -27.666 4.66699 -36.999 14c-10 9.33301 -15 21 -15 35c0 16.667 4.66699 29.334 14 38.001s21.666 13 36.999 13
c40.667 0 61 -27.333 61 -82z" />
    <glyph glyph-name="quotedblleft" unicode="&#x201c;" horiz-adv-x="493" 
d="M413 802c-48.667 -31.333 -74.332 -72.332 -76.999 -122.999c2.66699 1.33301 7.66699 2 15 2c15.333 0 27.666 -4.33301 36.999 -13c9.33301 -9.33301 14 -21.333 14 -36s-4.33301 -27.334 -13 -38.001c-10.667 -8.66699 -23 -13 -37 -13c-40.667 0 -61 27.333 -61 82
c0 80 33.333 138 100 174zM242.002 802.001c-48.667 -31.333 -74.332 -72.332 -76.999 -122.999c2.66699 1.33301 7.66699 2 15 2c15.333 0 27.666 -4.33301 36.999 -13c9.33301 -9.33301 14 -21.333 14 -36s-4.33301 -27.334 -13 -38.001c-10.667 -8.66699 -23 -13 -37 -13
c-40.667 0 -61 27.333 -61 82c0 80 33.333 138 100 174z" />
    <glyph glyph-name="quotedblright" unicode="&#x201d;" horiz-adv-x="493" 
d="M373 755c0 -79.333 -33.334 -137.334 -100.001 -174.001l-22 35c47.333 31.333 73 72.333 77 123c-5.33301 -1.33301 -10.333 -2 -15 -2c-15.333 0 -27.666 4.66699 -36.999 14c-9.33301 8.66699 -14 20.334 -14 35.001c0 16.667 4.33301 29 13 37
c8.66699 9.33301 21 14 37 14c40.667 0 61 -27.333 61 -82zM201.999 754.999c0 -79.333 -33.333 -137.332 -100 -173.999l-22 35c47.333 32 72.666 73 75.999 123c-5.33301 -1.33301 -10 -2 -14 -2c-15.333 0 -27.666 4.66699 -36.999 14c-10 9.33301 -15 21 -15 35
c0 17.333 4.66699 29.666 14 36.999c8.66699 9.33301 21 14 37 14c40.667 0 61 -27.333 61 -82z" />
    <glyph glyph-name="quotedblbase" unicode="&#x201e;" horiz-adv-x="493" 
d="M373 60c0 -79.333 -33.333 -137.335 -100 -174.002l-22 35c47.333 31.333 73 72.333 77 123c-5.33301 -1.33301 -10.333 -2 -15 -2c-15.333 0 -27.666 4.66699 -36.999 14c-9.33301 8.66699 -14 20.334 -14 35.001c0 16.667 4.33301 29.334 13 38.001
c9.33301 8.66699 21.666 13 36.999 13c40.667 0 61 -27.333 61 -82zM202 59.998c0 -79.333 -33.332 -137.334 -99.999 -174.001l-22 35c47.333 32 72.666 73 75.999 123c-5.33301 -1.33301 -10 -2 -14 -2c-15.333 0 -27.666 4.66699 -36.999 14c-10 9.33301 -15 21 -15 35
c0 16.667 4.66699 29.334 14 38.001s21.666 13 36.999 13c40.667 0 61 -27.333 61 -82z" />
    <glyph glyph-name="ellipsis" unicode="&#x2026;" horiz-adv-x="1000" 
d="M203 86c10 -8.66699 15 -20.667 15 -36c0 -14 -5 -26 -15 -36c-10.667 -9.33301 -22.667 -14 -36 -14c-14.667 0 -26.667 5 -36 15c-10 10 -15 21.667 -15 35c0 15.333 5 27.333 15 36c8.66699 9.33301 20.667 14 36 14c14.667 0 26.667 -4.66699 36 -14zM537 86
c9.33301 -9.33301 14.001 -21.333 14.001 -36c0 -13.333 -4.66699 -25.333 -14 -36c-10.667 -9.33301 -23 -14 -37 -14s-26 5 -36 15s-15 21.667 -15 35c0 15.333 5 27.333 15 36c9.33301 9.33301 21.333 14 36 14c15.333 0 27.666 -4.66699 36.999 -14zM869.001 86
c10 -8.66699 15 -20.667 15 -36c0 -14 -5 -26 -15 -36c-10.667 -9.33301 -22.667 -14 -36 -14c-14 0 -26 5 -36 15s-15 21.667 -15 35c0 15.333 5 27.333 15 36c9.33301 9.33301 21.333 14 36 14s26.667 -4.66699 36 -14z" />
    <glyph glyph-name="minus" unicode="&#x2212;" horiz-adv-x="824" 
d="M50 390h724v-60h-724v60z" />
    <glyph glyph-name="uni2215" unicode="&#x2215;" horiz-adv-x="785" 
d="M708 820h57l-688 -920h-57z" />
    <glyph glyph-name="lessequal" unicode="&#x2264;" horiz-adv-x="790" 
d="M707 651v-56l-545 -176l545 -178v-56l-624 203v60zM83 302l624 -203v-52l-624 203v52z" />
    <glyph glyph-name="greaterequal" unicode="&#x2265;" horiz-adv-x="790" 
d="M83 651l624 -203v-60l-624 -203v56l545 178l-545 176v56zM707 302v-52l-624 -203v52z" />
    <glyph glyph-name="dotmath" unicode="&#x22c5;" horiz-adv-x="339" 
d="M218 410c14 -12.667 21 -29 21 -49c0 -18.667 -7 -35 -21 -49s-30 -21 -48 -21c-19.333 0 -35.666 7 -48.999 21c-14 14 -21 30.333 -21 49c0 20 7 36.333 21 49c13.333 14 29.666 21 48.999 21c18 0 34 -7 48 -21z" />
    <glyph glyph-name="uni29F5" unicode="&#x29f5;" horiz-adv-x="500" 
d="M43 820h55l359 -920h-55z" />
    <glyph glyph-name="uniFE10" unicode="&#xfe10;" horiz-adv-x="1000" 
d="M808 632c0 -79.333 -33.334 -137.334 -100.001 -174.001l-22 35c47.333 31.333 73 72.333 77 123c-5.33301 -1.33301 -10.333 -2 -15 -2c-15.333 0 -27.666 4.66699 -36.999 14c-9.33301 8.66699 -14 20.334 -14 35.001c0 16.667 4.33301 29 13 37
c8.66699 9.33301 21 14 37 14c40.667 0 61 -27.333 61 -82z" />
    <glyph glyph-name="uniFE13" unicode="&#xfe13;" horiz-adv-x="1000" 
d="M787 700c9.33301 -9.33301 14.001 -21.333 14.001 -36c0 -13.333 -4.66699 -25.333 -14 -36c-10.667 -9.33301 -23 -14 -37 -14c-13.333 0 -25.333 4.66699 -36 14c-10 10 -15 22 -15 36c0 15.333 5 27.333 15 36c9.33301 9.33301 21.333 14 36 14
c15.333 0 27.666 -4.66699 36.999 -14zM787.001 334c9.33301 -9.33301 14.001 -21.333 14.001 -36c0 -13.333 -4.66699 -25.333 -14 -36c-10.667 -9.33301 -23 -14 -37 -14c-13.333 0 -25.333 4.66699 -36 14c-10 10 -15 22 -15 36c0 15.333 5 27.333 15 36
c9.33301 9.33301 21.333 14 36 14c15.333 0 27.666 -4.66699 36.999 -14z" />
    <glyph glyph-name="uniFE14" unicode="&#xfe14;" horiz-adv-x="1000" 
d="M784 700c9.33301 -9.33301 14.001 -21.333 14.001 -36c0 -13.333 -4.66699 -25.333 -14 -36c-10.667 -9.33301 -23 -14 -37 -14c-13.333 0 -25.333 4.66699 -36 14c-9.33301 9.33301 -14 21.333 -14 36c0 15.333 4.66699 27.333 14 36c9.33301 9.33301 21.333 14 36 14
c15.333 0 27.666 -4.66699 36.999 -14zM808.001 265c0 -78.667 -33.332 -136.333 -99.999 -173l-22 35c47.333 31.333 73 72 77 122l-15 -1c-14.667 0 -27 4.33301 -37 13c-9.33301 8.66699 -14 20.667 -14 36c0 16.667 4.33301 29 13 37
c9.33301 9.33301 21.666 14 36.999 14c40.667 0 61 -27.667 61 -83z" />
    <glyph glyph-name="uniFE15" unicode="&#xfe15;" horiz-adv-x="1000" 
d="M716 714h68l-10 -529h-48zM787 86c9.33301 -9.33301 14.001 -21.333 14.001 -36c0 -13.333 -4.66699 -25.333 -14 -36c-10.667 -9.33301 -23 -14 -37 -14c-14.667 0 -26.667 5 -36 15c-10 10 -15 21.667 -15 35c0 15.333 5 27.333 15 36c8.66699 9.33301 20.667 14 36 14
s27.666 -4.66699 36.999 -14z" />
    <glyph glyph-name="uniFE16" unicode="&#xfe16;" horiz-adv-x="1000" 
d="M909 674c36 -34 54 -79.999 54 -137.999c0 -42 -12.667 -79.667 -38 -113c-10 -12.667 -36.333 -38.334 -79 -77.001c-22.667 -20 -39.334 -39 -50.001 -57c-14 -24 -21 -49.667 -21 -77v-29h-61v29c0 29.333 6 56 18 80c14.667 32 45.334 68.333 92.001 109
c25.333 25.333 40.666 41.333 45.999 48c21.333 27.333 32 55.666 32 84.999c0 42 -12.333 76 -37 102c-25.333 25.333 -62 38 -110 38c-53.333 0 -93.666 -18 -120.999 -54c-24 -30 -36 -71.333 -36 -124h-60c0 66.667 18.333 121.334 55 164.001
c39.333 45.333 94.333 68 165 68c62.667 0 113 -18 151 -54zM781 86.001c10 -8.66699 15.001 -20.667 15.001 -36c0 -14 -5 -26 -15 -36c-10.667 -9.33301 -22.667 -14 -36 -14c-14.667 0 -27 5 -37 15c-9.33301 9.33301 -14 21 -14 35c0 15.333 4.66699 27.333 14 36
c9.33301 9.33301 21.666 14 36.999 14c14.667 0 26.667 -4.66699 36 -14z" />
    <glyph glyph-name="glyph2" horiz-adv-x="333" 
 />
  </font>
</defs>
</svg>
